<?xml version="1.0" standalone="no"?><svg xmlns="http://www.w3.org/2000/svg" viewBox="0 0 1440 320"><path fill="#0d6efd" fill-opacity="1" d="M0,128L40,149.3C80,171,160,213,240,218.7C320,224,400,192,480,197.3C560,203,640,245,720,218.7C800,192,880,96,960,85.3C1040,75,1120,149,1200,170.7C1280,192,1360,160,1400,144L1440,128L1440,320L1400,320C1360,320,1280,320,1200,320C1120,320,1040,320,960,320C880,320,800,320,720,320C640,320,560,320,480,320C400,320,320,320,240,320C160,320,80,320,40,320L0,320Z"></path></svg>